<?xml version="1.0" encoding="UTF-8" standalone="no"?>
<svg
   version="1.0"
   width="452pt"
   height="452pt"
   viewBox="0 0 452.000000 452.000000"
   preserveAspectRatio="xMidYMid meet"
   id="svg2"
   sodipodi:docname="3d-printerOn.svg"
   inkscape:version="1.3 (0e150ed6c4, 2023-07-21)"
   xmlns:inkscape="http://www.inkscape.org/namespaces/inkscape"
   xmlns:sodipodi="http://sodipodi.sourceforge.net/DTD/sodipodi-0.dtd"
   xmlns="http://www.w3.org/2000/svg"
   xmlns:svg="http://www.w3.org/2000/svg">
  <defs
     id="defs2" />
  <sodipodi:namedview
     id="namedview2"
     pagecolor="#ffffff"
     bordercolor="#000000"
     borderopacity="0.25"
     inkscape:showpageshadow="2"
     inkscape:pageopacity="0.0"
     inkscape:pagecheckerboard="0"
     inkscape:deskcolor="#d1d1d1"
     inkscape:document-units="pt"
     inkscape:zoom="1.2892699"
     inkscape:cx="300.94552"
     inkscape:cy="301.33333"
     inkscape:window-width="1920"
     inkscape:window-height="991"
     inkscape:window-x="-9"
     inkscape:window-y="-9"
     inkscape:window-maximized="1"
     inkscape:current-layer="svg2" />
  <g
     transform="translate(0.000000,452.000000) scale(0.100000,-0.100000)"
     fill="#000000"
     stroke="none"
     id="g2">
    <path
       d="M1950 4324 c-224 -48 -358 -210 -405 -486 l-6 -37 -442 -3 c-434 -3 -443 -3 -483 -25 -64 -34 -103 -71 -132 -127 l-27 -51 -3 -1539 c-3 -1754 -10 -1610 82 -1701 92 -92 -56 -85 1726 -85 1782 0 1634 -7 1726 85 92 91 85 -53 82 1701 l-3 1539 -24 45 c-32 62 -67 97 -126 127 -42 22 -70 27 -180 33 -178 11 -261 39 -785 268 -396 172 -549 226 -724 257 -107 18 -189 18 -276 -1z m336 -200 c156 -40 478 -166 724 -282 l85 -40 -686 -1 -686 -1 8 48 c50 272 229 361 555 276z m-751 -644 l0 -135 -450 0 -450 0 0 106 c0 93 3 110 20 129 11 12 29 26 40 31 11 4 204 7 430 6 l410 -2 0 -135z m2322 107 c27 -27 28 -31 28 -135 l0 -107 -1082 -3 -1083 -2 0 140 0 140 1055 -2 1055 -3 27 -28z m-2497 -493 c0 -107 45 -172 136 -195 44 -11 44 -12 44 -55 l0 -44 90 0 90 0 0 45 c0 43 1 44 40 55 85 23 139 101 140 203 l0 57 995 0 995 0 -2 -1127 -3 -1128 -1625 0 -1625 0 -3 1128 -2 1127 365 0 365 0 0 -66z m2530 -2469 c0 -105 -11 -140 -51 -161 -42 -21 -3116 -21 -3158 0 -40 21 -51 56 -51 161 l0 95 1630 0 1630 0 0 -95z"
       id="path1" />
    <path
       d="M1975 2699 c-154 -60 -355 -139 -448 -175 l-167 -66 2 -561 3 -561 448 -174 449 -174 446 174 447 174 0 563 0 562 -435 170 c-239 93 -442 171 -450 173 -8 3 -141 -45 -295 -105z m602 -206 c167 -65 303 -121 303 -124 0 -3 -139 -68 -310 -144 l-310 -137 -310 137 c-170 76 -310 141 -310 144 0 7 600 240 619 241 8 0 151 -53 318 -117z m-702 -432 l290 -129 3 -356 c1 -196 0 -356 -2 -356 -2 0 -120 45 -262 101 -143 55 -283 110 -311 121 l-53 19 0 375 0 374 23 -10 c12 -6 153 -68 312 -139z m1101 -598 c-4 -5 -615 -243 -622 -243 -2 0 -3 160 -2 356 l3 355 310 138 310 138 3 -370 c1 -204 0 -372 -2 -374z"
       id="path2" />
  </g>
  <path
     style="fill:#ffffff;stroke-width:0.775633"
     d="m 241.92235,447.38741 -59.02316,-22.97154 -0.50665,-15.12804 c -0.27866,-8.32041 -0.50665,-41.91342 -0.50665,-74.65114 v -59.52312 l 2.13299,-0.78211 c 1.17314,-0.43016 20.80635,-8.10426 43.62934,-17.05356 38.48823,-15.0919 64.51125,-25.00818 71.56287,-27.26959 2.60846,-0.83651 3.51714,-0.71175 8.53196,1.17142 6.11764,2.29729 89.52484,34.65551 103.34232,40.09213 l 8.53196,3.35699 0.19776,74.96155 0.19776,74.96156 -1.74903,0.5505 c -0.96196,0.30278 -27.22856,10.49236 -58.37021,22.64351 -31.14166,12.15117 -57.14475,22.21001 -57.78464,22.35301 -0.6399,0.14299 -27.72387,-10.07722 -60.18662,-22.71157 z m 47.29172,-9.63966 c 0.58702,-2.93507 0.46149,-49.93795 -0.20045,-75.06505 l -0.47823,-18.15299 -41.49635,-18.48814 c -22.823,-10.16848 -41.58361,-18.49152 -41.69026,-18.49566 -0.10665,-0.004 -0.19391,22.61898 -0.19391,50.27359 v 50.28111 l 40.91463,15.96809 c 22.50304,8.78246 41.30729,15.99843 41.78721,16.03551 0.47993,0.0371 1.09074,-1.02334 1.35736,-2.35646 z m 48.574,-6.36132 c 11.73145,-4.53118 29.88126,-11.65065 40.33291,-15.82105 l 19.003,-7.58254 V 358.6004 c 0,-27.16034 -0.23642,-49.61864 -0.52538,-49.90734 -0.28896,-0.28869 -18.96232,7.67585 -41.49635,17.69898 l -40.97098,18.22387 -0.4799,17.72208 c -0.66789,24.66476 -0.78598,72.47374 -0.1864,75.47163 0.3565,1.7825 0.85022,2.3909 1.74517,2.15053 0.68642,-0.18436 10.84649,-4.04253 22.57793,-8.57372 z m -6.54519,-119.86846 c 33.63835,-14.95718 51.61975,-23.21346 52.59372,-24.14874 0.37071,-0.35599 -0.67634,-1.32886 -2.3269,-2.16202 -6.20983,-3.13458 -48.80113,-19.81261 -71.83831,-28.13066 l -8.33806,-3.01063 -8.33805,3.01168 c -19.17398,6.9256 -67.75464,25.99041 -72.55857,28.47462 -1.27343,0.65852 -1.9791,1.46918 -1.60348,1.84207 1.0923,1.08435 80.49081,36.96385 82.15997,37.12737 0.45283,0.0444 14.06518,-5.8073 30.24968,-13.00369 z"
     id="path3"
     transform="scale(0.75)" />
  <path
     style="fill:#6ccca5;stroke-width:0.775633;fill-opacity:1"
     d="m 127.97941,565.78352 c -32.206081,-0.56427 -42.789771,-1.39591 -48.078013,-3.77783 -1.712564,-0.77137 -5.788252,-4.17025 -9.057085,-7.55305 -4.863938,-5.03353 -6.16551,-6.91894 -7.166677,-10.38139 -2.830146,-9.78783 -2.981901,-21.74839 -2.837627,-223.64734 l 0.140718,-196.92316 3.08134,-5.43768 c 1.694737,-2.99073 4.136774,-6.77028 5.426749,-8.39901 3.340955,-4.2183 12.957977,-10.428753 17.917979,-11.571021 2.932192,-0.675271 20.518206,-1.087436 61.076236,-1.431452 l 56.95835,-0.483123 1.69333,-8.53196 c 5.60157,-28.223896 18.35113,-46.805722 38.62405,-56.292567 21.38964,-10.00942 49.79492,-8.399496 87.37552,4.952174 13.70008,4.86738 33.89112,13.086347 60.88717,24.784738 65.87773,28.547269 78.40184,32.954765 98.55553,34.683746 20.92698,1.795319 22.85078,2.138597 29.02594,5.179305 7.2288,3.55952 12.51214,8.79099 16.83274,16.66742 l 3.24904,5.923 0.13482,196.90137 c 0.13809,201.66147 -0.0168,213.89447 -2.83049,223.62556 -1.00116,3.46245 -2.30274,5.34786 -7.16668,10.38139 -3.26883,3.3828 -7.34087,6.78007 -9.04897,7.54946 -5.35722,2.4131 -15.1607,3.10981 -53.90337,3.83077 -43.09562,0.80196 -294.37779,0.76559 -340.8906,-0.0494 z m 321.29793,-23.2121 c 66.50383,-0.77983 64.3101,-0.60309 67.14943,-5.4097 1.73253,-2.93293 2.80537,-11.38404 2.83542,-22.33547 l 0.024,-8.72586 H 301.21858 83.151011 l 0.457068,12.60403 c 0.251387,6.93222 0.819705,13.79938 1.262928,15.26036 1.058284,3.48837 4.334715,6.832 7.344394,7.49501 6.968744,1.53517 255.070869,2.30758 357.061939,1.11163 z m 69.23317,-146.87048 c 0,-47.49516 0.23199,-115.20791 0.51554,-150.47276 l 0.51553,-64.11793 H 386.39285 253.2441 l -0.0135,4.45989 c -0.0187,6.18916 -1.90588,14.48701 -4.17565,18.36007 -3.75017,6.39919 -8.24535,9.55275 -18.88596,13.24928 -0.66,0.22928 -0.96954,2.20186 -0.96954,6.17841 v 5.84159 h -11.6345 -11.63449 v -4.89337 c 0,-2.73908 -0.42684,-5.43696 -0.96954,-6.12811 -0.53325,-0.67911 -2.88923,-1.77888 -5.23552,-2.44394 -9.10491,-2.58081 -15.2553,-8.68883 -17.01602,-16.89875 -0.45294,-2.11202 -0.82353,-6.96416 -0.82353,-10.78255 v -6.94252 H 132.50546 83.125028 l 0.515564,65.28139 c 0.283561,35.90477 0.515564,103.61751 0.515564,150.47276 v 85.19137 H 301.33333 518.51051 Z m -46.34406,-238.63496 46.34406,-3.4e-4 -0.0185,-12.21622 c -0.0228,-15.08115 -0.51516,-17.38082 -4.59422,-21.46008 l -3.16611,-3.16626 -140.76609,-0.25997 -140.76609,-0.25996 v 19.19731 19.19733 l 98.31145,-0.51574 c 54.0713,-0.28365 119.16628,-0.51589 144.65551,-0.51607 z M 205.15487,138.92412 v -18.14151 l -16.87001,-0.57673 c -9.27851,-0.3172 -34.56277,-0.4131 -56.18725,-0.2131 l -39.317235,0.36363 -2.776802,2.11797 c -5.230954,3.98984 -5.425313,4.68097 -5.736507,20.39873 l -0.280995,14.19253 h 60.584399 60.5844 z M 380.83569,95.875507 413.41227,95.402831 394.79708,86.936235 C 358.21863,70.29955 318.91431,55.55476 299.39425,51.146414 c -12.04689,-2.72063 -26.79343,-3.382841 -35.29129,-1.584795 -18.4137,3.896121 -29.25478,16.842449 -33.74185,40.294231 -0.63889,3.339193 -1.16162,6.215073 -1.16162,6.390845 0,0.462559 113.28717,0.185245 151.6362,-0.371188 z"
     id="path4"
     transform="scale(0.75)" />
  <path
     style="fill:#6ccca5;fill-opacity:1;stroke-width:0.775633"
     d="m 279.00029,461.15313 c -12.06988,-4.62658 -38.479,-14.81772 -58.68693,-22.64698 l -36.74169,-14.23502 -0.44049,-6.9807 c -0.24227,-3.83938 -0.53431,-37.30965 -0.64898,-74.37837 l -0.2085,-67.39768 27.53497,-10.7871 c 36.48859,-14.29478 82.3639,-31.89362 87.48989,-33.56317 2.4566,-0.80013 4.95225,-1.12965 6.20506,-0.81931 2.6983,0.6684 114.37989,43.87577 115.12196,44.53839 0.30774,0.27478 0.59,33.98486 0.62724,74.91129 l 0.0677,74.4117 -40.57232,15.75684 c -62.32209,24.2037 -76.60556,29.68606 -77.22858,29.64234 -0.31576,-0.0222 -10.44946,-3.82566 -22.51933,-8.45223 z m 10.22775,-22.20842 c 0.63203,-1.64705 0.60268,-68.38897 -0.0366,-83.15801 l -0.50737,-11.72206 -40.40726,-17.98105 c -22.22399,-9.88958 -41.02061,-18.14937 -41.77026,-18.35506 -1.29163,-0.35443 -1.35256,2.27988 -1.16345,50.30477 l 0.19956,50.67878 16.6761,6.5318 c 40.93303,16.03288 64.0858,24.86446 65.26408,24.89485 0.7009,0.0181 1.48623,-0.51923 1.74517,-1.19402 z m 44.86556,-5.71774 c 9.92403,-3.81954 28.16569,-10.9296 40.53703,-15.80013 l 22.49335,-8.8555 v -49.67651 c 0,-27.32208 -0.23349,-49.90986 -0.51886,-50.19506 -0.63573,-0.63536 -12.08201,4.1743 -51.91237,21.81328 l -30.71352,13.60156 -0.50286,10.99203 c -0.66252,14.48177 -0.6555,83.88383 0.009,84.54787 0.99626,0.99627 2.70327,0.46388 20.60868,-6.42754 z M 312.04492,320.39521 c 30.16545,-12.89375 72.28112,-32.20267 72.28112,-33.13898 0,-0.3755 -1.13083,-1.37042 -2.51295,-2.21094 -5.20221,-3.16365 -77.4688,-31.02556 -80.47229,-31.02556 -1.67659,0 -27.39433,9.57697 -55.07739,20.51014 -23.57876,9.31222 -27.92278,11.25046 -27.92278,12.45877 0,1.28685 79.42311,37.47365 82.45761,37.56939 0.77219,0.0244 5.83319,-1.84891 11.24668,-4.16282 z"
     id="path5"
     transform="scale(0.75)" />
</svg>
