<?xml version="1.0" encoding="UTF-8" standalone="no"?>
<svg
   version="1.0"
   width="512pt"
   height="512pt"
   viewBox="0 0 512.000000 512.000000"
   preserveAspectRatio="xMidYMid meet"
   id="svg6"
   sodipodi:docname="fanOff.svg"
   inkscape:version="1.3 (0e150ed6c4, 2023-07-21)"
   xmlns:inkscape="http://www.inkscape.org/namespaces/inkscape"
   xmlns:sodipodi="http://sodipodi.sourceforge.net/DTD/sodipodi-0.dtd"
   xmlns="http://www.w3.org/2000/svg"
   xmlns:svg="http://www.w3.org/2000/svg">
  <defs
     id="defs6" />
  <sodipodi:namedview
     id="namedview6"
     pagecolor="#ffffff"
     bordercolor="#000000"
     borderopacity="0.25"
     inkscape:showpageshadow="2"
     inkscape:pageopacity="0.0"
     inkscape:pagecheckerboard="0"
     inkscape:deskcolor="#d1d1d1"
     inkscape:document-units="pt"
     showgrid="false"
     inkscape:zoom="1.1381836"
     inkscape:cx="281.14972"
     inkscape:cy="317.61133"
     inkscape:window-width="1920"
     inkscape:window-height="991"
     inkscape:window-x="-9"
     inkscape:window-y="-9"
     inkscape:window-maximized="1"
     inkscape:current-layer="svg6" />
  <g
     transform="translate(0.000000,512.000000) scale(0.100000,-0.100000)"
     fill="#000000"
     stroke="none"
     id="g6">
    <path
       d="M2360 5100 c-457 -57 -844 -245 -1166 -565 -341 -339 -542 -797 -561 -1275 -10 -264 18 -463 98 -704 209 -625 724 -1101 1371 -1267 464 -118 991 -46 1410 193 816 465 1182 1420 887 2313 -96 290 -279 572 -512 789 -287 269 -641 442 -1022 501 -123 19 -403 27 -505 15z m541 -244 c163 -34 283 -76 434 -151 518 -258 870 -763 936 -1345 16 -142 7 -376 -21 -510 -140 -687 -638 -1199 -1328 -1362 -69 -16 -133 -21 -313 -25 -203 -5 -237 -3 -340 17 -139 26 -351 96 -462 151 -183 92 -335 207 -493 372 -220 230 -362 505 -431 836 -23 110 -26 151 -27 321 -1 210 6 272 54 456 162 618 690 1117 1311 1238 217 43 482 43 680 2z"
       id="path1" />
    <path
       d="M1999 4541 c-102 -40 -192 -125 -246 -230 -26 -52 -28 -65 -28 -171 0 -115 0 -116 35 -174 43 -71 115 -139 245 -231 122 -87 188 -151 221 -218 15 -29 28 -54 30 -56 3 -3 26 16 52 42 26 25 73 58 106 73 76 34 178 36 279 4 38 -12 70 -20 71 -18 13 19 29 140 33 254 7 179 -10 272 -73 401 -81 169 -235 289 -419 328 -99 21 -248 19 -306 -4z"
       id="path2" />
    <path
       d="M3530 3459 c-19 -6 -102 -42 -185 -80 -156 -72 -218 -89 -316 -89 -33 0 -59 -1 -59 -2 0 -2 7 -35 15 -75 27 -127 -11 -237 -117 -342 l-62 -61 44 -46 c59 -59 171 -136 262 -179 216 -103 446 -99 634 10 117 68 247 238 281 367 46 177 -54 391 -222 473 -50 25 -73 30 -149 32 -50 1 -107 -2 -126 -8z"
       id="path3" />
    <path
       d="M2454 3396 c-96 -45 -140 -128 -132 -253 5 -82 36 -137 105 -182 70 -47 180 -54 253 -16 43 22 100 82 117 123 19 46 20 157 1 202 -55 129 -213 187 -344 126z"
       id="path4" />
    <path
       d="M2040 3121 c-243 -91 -417 -232 -500 -405 -48 -102 -63 -167 -62 -271 1 -103 22 -187 74 -293 52 -106 116 -172 205 -215 65 -30 73 -32 193 -32 120 0 127 1 178 30 30 16 78 55 107 87 80 87 106 168 125 400 11 138 37 228 85 299 16 21 26 41 24 43 -2 2 -26 9 -54 15 -68 17 -125 52 -173 106 -50 57 -71 101 -92 189 -9 39 -21 71 -26 72 -5 2 -43 -10 -84 -25z"
       id="path5" />
    <path
       d="M2167 963 c-3 -10 -8 -31 -11 -46 -19 -84 -122 -189 -271 -276 -285 -167 -352 -209 -402 -255 -84 -76 -97 -108 -101 -253 l-4 -123 1187 0 1187 0 -4 122 c-3 79 -10 136 -20 158 -31 72 -127 146 -368 284 -261 148 -350 230 -386 351 -8 30 -19 55 -24 55 -5 0 -38 -7 -74 -15 -161 -37 -472 -37 -619 0 -75 19 -85 19 -90 -2z"
       id="path6" />
  </g>
  <path
     id="path7"
     style="fill:#6ccca5;stroke-width:0.878593;fill-opacity:1"
     d="M 340.23047 2.4238281 C 329.30079 2.3234021 319.18396 2.6513587 313.21875 3.4394531 C 281.58628 7.6185726 256.19308 15.268434 228.43359 28.982422 C 149.14372 68.153928 95.339374 144.96856 86.080078 232.21289 C 84.589061 246.26181 84.395746 272.22026 85.685547 285.23047 C 92.828706 357.28342 131.17347 424.16547 190.21484 467.55664 C 220.75746 490.00327 258.58958 506.6024 294.76758 513.42773 C 302.76477 514.93649 309.75636 515.85372 325.08008 517.4082 C 332.15776 518.12619 362.28005 517.07586 372.83789 515.74219 C 431.12139 508.37976 482.50169 483.17208 524.10742 441.5293 C 544.17007 421.4488 560.21966 399.10004 572.39844 374.28125 C 580.65448 357.45649 584.48461 347.77066 589.02539 332.24219 C 610.70932 258.08797 598.15899 177.98839 555.00195 115.0957 C 538.59252 91.182255 515.15445 67.316722 490.69336 49.613281 C 457.13582 25.326411 412.13868 8.0089597 372.11719 3.9804688 C 362.90207 3.0528914 351.16015 2.5242542 340.23047 2.4238281 z M 345.02344 31.091797 C 355.70615 31.183057 366.2569 31.660865 372.52344 32.492188 C 406.65483 37.02008 438.84605 49.109041 468.28906 68.453125 C 518.95108 101.73812 554.50131 154.4247 566.59766 214.15625 C 570.09835 231.44265 570.93154 242.66225 570.39258 265.2168 C 569.85474 287.72465 568.58239 297.81745 564.0625 315.41406 C 548.4169 376.32516 511.50772 425.756 458.00977 457.44336 C 435.26641 470.91447 404.77817 482.4498 382.62695 485.9668 C 376.84957 486.88409 365.08517 487.40731 344.4082 487.66602 C 317.93327 487.99728 313.53674 487.853 305.75 486.39844 C 288.59795 483.19445 264.65427 475.98902 249.24805 469.39453 C 211.75796 453.34729 174.91008 421.96031 150.55859 385.33398 C 134.17678 360.6946 123.24757 333.62968 116.77148 301.66406 C 114.60554 290.97294 114.35945 287.72061 114.00195 264.89648 C 113.6953 245.31925 113.91221 237.55554 114.99609 229.3125 C 116.68111 216.49757 121.20516 197.82022 126.0625 183.625 C 133.33549 162.37017 148.40153 135.33586 163.51758 116.41406 C 171.50563 106.41484 189.59114 88.406499 199.87891 80.208984 C 234.14539 52.904715 273.75258 36.569502 316.73242 32.015625 C 323.52554 31.29587 334.34072 31.000536 345.02344 31.091797 z M 286.47852 75.244141 C 278.89626 75.326853 271.43714 76.154897 267.44336 77.558594 C 254.24037 82.199064 241.55125 94.128719 233.5918 109.38477 C 231.08069 114.19817 231.07031 114.28109 231.07031 130.50391 L 231.07031 146.78906 L 234.14453 152.0293 C 238.79638 159.95494 252.22311 172.88479 267.59766 184.24609 C 283.76507 196.19338 292.44637 204.63039 296.49414 212.33008 C 298.10194 215.38847 299.80342 218.3862 300.27539 218.99023 C 301.48309 220.53586 301.48105 220.53566 306.5 216.00781 C 318.00731 205.6266 325.96383 202.30924 339.57617 202.21484 C 347.02547 202.16317 350.63848 202.62931 358.34375 204.64258 C 365.72186 206.57037 368.03872 206.88846 368.5625 206.04102 C 370.74648 202.50726 373.38412 170.20932 372.50977 157.70703 C 371.49018 143.12852 369.15583 134.29496 362.87109 121.24609 C 350.83596 96.257678 327.68665 79.696049 299.53711 75.935547 C 295.62067 75.412349 291.02783 75.194513 286.47852 75.244141 z M 470.92578 221.40625 L 450.71875 230.47656 C 426.59148 241.30638 418.99849 243.68023 406.13867 244.41602 C 400.93924 244.71351 396.68555 245.05188 396.68555 245.16797 C 396.68555 245.28407 397.3268 248.48182 398.11133 252.27539 C 399.96133 261.22103 399.38627 273.06465 396.76953 279.93164 C 394.2718 286.4863 389.09184 293.83006 381.56836 301.47852 L 375.40039 307.74805 L 377.45703 310.53125 C 380.2579 314.31962 390.28301 322.49869 399.32031 328.36719 C 413.71454 337.71422 428.18555 343.74137 442.21094 346.23047 C 451.45819 347.87158 468.78055 347.20405 477.95508 344.85352 C 481.82083 343.86306 489.13516 341.03395 494.20898 338.56836 C 502.47432 334.55193 504.3605 333.16025 512.33203 325.18945 C 530.44407 307.07917 539.34378 288.26014 537.71289 271.52539 C 535.76698 251.55805 523.79883 233.60819 506.82031 225.19336 L 499.17578 221.40625 L 485.05078 221.40625 L 470.92578 221.40625 z M 341.72656 227.59375 C 334.25986 227.55799 333.36409 227.75865 327.05859 230.875 C 315.07968 236.7953 310.31957 244.94203 310.25977 259.625 C 310.2129 271.12734 311.99133 276.12032 318.41016 282.49805 C 323.53263 287.58773 329.42764 290.89342 335.54102 292.10547 C 340.8104 293.15016 344.1964 293.13057 349.41797 292.02539 C 355.89104 290.65532 358.52175 289.13304 364.75 283.15234 C 372.41071 275.79615 374.14976 271.45541 374.19336 259.58984 C 374.22412 251.22071 373.9937 249.85137 371.79883 245.36523 C 368.68676 239.00441 361.37732 232.26756 354.72852 229.63281 C 350.82616 228.0864 347.87337 227.62315 341.72656 227.59375 z M 281.88867 264.19141 C 276.30073 264.48708 252.39016 275.20523 240.93359 282.75 C 204.83358 306.52386 189.77023 343.59614 201.32227 380.23047 C 209.17134 405.12183 224.04883 421.87991 242.93164 427.10156 C 247.52754 428.37248 270.72115 428.65323 275.69727 427.49805 C 281.11433 426.24049 288.56253 421.29276 295.63281 414.25586 C 306.44155 403.49815 310.2486 394.1674 312.78125 372.21875 C 316.70232 338.23763 318.48625 330.7812 325.18164 320.39063 C 328.85662 314.68742 328.9027 314.52108 327.01563 313.97461 C 311.29914 309.42341 307.15598 307.12844 299.0918 298.50781 C 292.76598 291.74552 289.75589 285.83902 286.40234 273.61133 C 285.06469 268.73382 283.42147 264.53231 282.75195 264.27539 C 282.5514 264.19843 282.2612 264.17169 281.88867 264.19141 z M 392.83789 552.875 C 391.59518 552.89233 388.91447 553.29875 385.92383 553.95117 C 361.94574 559.18212 324.97627 559.41658 301.19922 554.49023 C 295.79658 553.37087 290.98828 552.69421 290.51563 552.98633 C 290.04298 553.27844 288.99448 556.07161 288.18555 559.19336 C 286.34655 566.29031 283.50592 571.1806 277.375 577.80273 C 270.17103 585.58389 261.07672 592.00837 237.04297 606.29297 C 209.90393 622.42322 203.52235 626.68978 196.49609 633.4043 C 186.76485 642.70377 185.53533 646.33969 184.51172 668.82813 L 183.94141 681.34961 L 341.71094 681.34961 L 499.48047 681.34961 L 499.46484 672.34375 C 499.44266 659.22459 497.99952 647.33011 495.9043 643.00195 C 491.96224 634.85874 478.69513 624.75848 449.40039 607.5957 C 412.55548 586.00956 402.52016 577.11573 396.54883 560.75391 C 395.1161 556.8281 393.77057 553.33517 393.55859 552.99219 C 393.5056 552.90644 393.25213 552.86922 392.83789 552.875 z "
     transform="scale(0.75)" />
  <path
     style="fill:#6ccca5;fill-opacity:1;stroke-width:0.0549121"
     d="m 409.06735,254.69081 v -10.45204 l 0.72759,-0.0676 c 9.67992,-0.89996 17.41582,-3.32478 34.51932,-10.82011 2.95047,-1.29299 3.93115,-1.73111 16.24235,-7.25629 l 10.38759,-4.66187 h 14.10891 14.1089 l 4.24997,2.10585 c 2.33748,1.15822 4.64534,2.3229 5.12856,2.58819 3.40892,1.8715 6.51649,4.0543 9.63126,6.76516 0.95977,0.83531 3.79751,3.65706 4.68388,4.65749 2.33188,2.63196 4.69235,5.82683 6.3757,8.62945 l 0.53267,0.88684 v 9.03851 9.03851 H 469.4157 409.06735 Z"
     id="path8"
     transform="scale(0.75)" />
  <path
     style="fill:#6ccca5;fill-opacity:1;stroke-width:0.0549121"
     d="m 471.23238,221.35511 c 0.0532,-0.0531 1.28582,-0.26121 2.29005,-0.38665 6.89718,-0.86158 19.33436,-0.71182 24.39263,0.29372 0.51737,0.10285 0.40958,0.10376 -13.09195,0.10974 -7.48749,0.003 -13.60332,-0.004 -13.59073,-0.0168 z"
     id="path9"
     transform="scale(0.75)" />
  <path
     style="fill:#6ccca5;fill-opacity:1;stroke-width:0.0549121"
     d="m 409.06735,254.69175 v -10.45111 l 0.97469,-0.095 c 9.52627,-0.92866 17.23337,-3.33981 33.67482,-10.53512 3.12317,-1.3668 5.19824,-2.29313 16.58984,-7.40588 l 10.63189,-4.77177 h 14.11222 14.11221 l 4.13964,2.0497 c 4.50454,2.23036 5.32528,2.65737 6.85779,3.56783 2.79068,1.65795 5.33966,3.5169 8.01716,5.84683 0.95465,0.83073 3.7937,3.65415 4.67807,4.65233 2.33498,2.63546 4.79359,5.97049 6.46182,8.76526 l 0.44655,0.7481 v 9.03997 9.03998 H 469.4157 409.06735 Z"
     id="path10"
     transform="scale(0.75)" />
  <path
     style="fill:#6ccca5;fill-opacity:1;stroke-width:0.0549121"
     d="m 409.06735,254.68211 v -10.46075 h 0.11108 c 0.0611,0 0.59855,-0.0497 1.19434,-0.11043 9.58184,-0.97684 17.29884,-3.4438 34.66198,-11.08072 2.33672,-1.02777 8.00173,-3.56253 20.62531,-9.2286 l 5.27739,-2.36875 h 14.11583 14.11583 l 4.41115,2.19116 c 2.42614,1.20514 4.74495,2.37554 5.15292,2.6009 6.00039,3.31458 11.43648,7.9121 15.98728,13.52111 1.40138,1.72725 3.15541,4.21775 4.4062,6.25627 l 0.63739,1.03882 v 9.05087 9.05087 H 469.4157 409.06735 Z"
     id="path11"
     transform="scale(0.75)" />
  <path
     style="fill:#6ccca5;fill-opacity:1;stroke-width:0.878593"
     d="m 439.73574,345.23982 c -12.64627,-2.71351 -28.77282,-9.83375 -41.28047,-18.22626 -8.5353,-5.72711 -18.84037,-14.21596 -20.6966,-17.04894 -1.4375,-2.19389 -1.39808,-2.28514 2.90845,-6.73353 10.50529,-10.85136 15.71514,-18.96943 17.77022,-27.68988 1.09931,-4.66476 0.78608,-22.10133 -0.49372,-27.48413 -0.54478,-2.29129 -0.44577,-2.35392 4.58334,-2.89913 17.85783,-1.93599 23.20712,-3.57027 49.33744,-15.07325 l 18.7181,-8.24 h 14.53427 14.53426 l 7.1629,3.67957 c 14.21653,7.30299 24.44654,20.64673 28.77647,37.53519 5.25158,20.48329 -2.59171,40.41302 -24.62298,62.56673 -6.10686,6.1408 -9.03131,8.3221 -15.44104,11.51722 -9.90013,4.93503 -17.26513,7.47634 -24.84365,8.57237 -8.37087,1.21062 -24.22293,0.96682 -30.94699,-0.47596 z"
     id="path12"
     transform="scale(0.75)" />
  <path
     id="path13"
     style="fill:#ffffff;fill-opacity:1;stroke-width:0.878593"
     d="M 322.62109 3.2324219 C 317.94526 3.4018721 314.22967 3.8313942 309.31836 4.5273438 C 302.60307 5.2056651 295.82459 6.5267171 287.82422 8.4511719 C 286.88655 8.6633061 285.95807 8.9047081 285.02344 9.1269531 C 283.0817 9.6087747 281.60368 9.9160557 279.39258 10.486328 C 279.04503 10.575965 278.70282 10.701717 278.35547 10.792969 C 273.80218 12.002242 269.29452 13.344727 264.82422 14.792969 C 263.53054 15.213572 262.24419 15.649434 260.95508 16.091797 C 229.0739 26.970504 199.51976 43.892858 173.94727 66.048828 C 173.48189 66.450442 173.02855 66.860938 172.56641 67.265625 C 168.55752 70.788538 164.61693 74.401224 160.81445 78.179688 C 142.59461 96.284487 127.67738 116.21804 115.91602 138.05273 C 115.84674 138.18056 115.77999 138.30956 115.71094 138.4375 C 114.30303 141.06231 112.93686 143.712 111.62109 146.39258 C 111.0924 147.46118 110.57987 148.53727 110.06641 149.61328 C 109.28927 151.25554 108.52057 152.90337 107.77734 154.56641 C 106.8381 156.64956 105.9336 158.74812 105.05078 160.85742 C 104.79809 161.46649 104.54515 162.07571 104.29688 162.6875 C 99.307359 174.87624 95.249787 187.48155 92.171875 200.45313 C 91.756293 202.16151 91.383087 203.89808 90.996094 205.625 C 90.783005 206.61229 90.545678 207.59078 90.34375 208.58203 C 89.381052 213.09402 88.477548 217.64508 87.707031 222.2832 C 87.36961 224.31432 87.095574 227.18936 86.855469 230.43359 C 85.540694 242.10864 85.50738 263.22499 86.347656 280.44141 C 86.4092 282.06457 86.457521 283.64292 86.535156 285.14648 C 86.595499 286.12395 86.642032 287.10675 86.708984 288.04102 C 86.874296 290.66824 87.067659 292.93233 87.289063 294.93945 C 87.300438 295.04707 87.312727 295.13963 87.324219 295.24609 C 87.453708 296.38308 87.56667 297.75276 87.714844 298.63281 C 87.793372 299.09922 87.901725 299.55032 87.982422 300.01563 C 88.05635 300.47854 88.116099 301.12056 88.193359 301.53906 C 88.574419 303.60317 89.042251 305.58824 89.458984 307.61914 C 89.910283 309.85663 90.348649 312.10081 90.851563 314.3125 C 91.229234 315.96332 91.659699 317.57321 92.0625 319.20313 C 92.765159 322.04911 93.462068 324.89794 94.251953 327.70117 C 94.839675 329.79616 95.50221 331.83971 96.134766 333.90234 C 96.792702 336.03541 97.417177 338.18478 98.126953 340.29297 C 99.25039 343.64981 100.47631 346.94524 101.72656 350.22461 C 102.03259 351.02392 102.30535 351.83909 102.61914 352.63477 C 107.60657 365.32748 113.55045 377.49137 120.58203 389.32031 C 120.5874 389.32937 120.59228 389.3386 120.59766 389.34766 C 122.94105 393.28877 125.39298 397.19776 127.97656 401.07617 C 133.12872 408.81045 137.44616 414.85867 142.01172 420.57617 C 146.57727 426.29369 151.39058 431.68146 157.5332 438.0918 C 160.07005 440.73919 162.66793 443.33037 165.32422 445.86523 C 167.98052 448.40012 170.69391 450.8779 173.46289 453.29688 C 198.38381 475.06799 227.7307 492.07555 259.03711 503.08594 C 272.95087 507.97937 287.25161 511.68785 301.72266 514.10352 C 305.34041 514.70743 308.9698 515.23129 312.60547 515.67188 C 325.95411 517.28949 341.75045 517.46434 357.74805 516.36133 C 359.01604 516.28918 360.39489 516.26365 361.61328 516.17578 C 373.07481 515.34924 384.394 513.63585 395.54297 511.24609 C 398.25379 510.6861 400.97214 510.12844 403.5625 509.49219 C 404.23181 509.32779 404.8814 509.1093 405.54883 508.93945 C 407.07315 508.54663 408.57785 508.09305 410.09375 507.67188 C 413.78593 506.65718 417.4607 505.60335 421.08984 504.42383 C 421.35851 504.33586 421.62227 504.23534 421.89063 504.14648 C 445.75599 496.3001 468.20136 484.96511 488.58594 470.63086 C 489.31938 470.11767 490.02171 469.55993 490.75 469.03906 C 493.94421 466.74291 497.12103 464.42303 500.20898 461.98242 C 502.65737 460.05783 505.0219 458.02533 507.40234 456.01172 C 508.70025 454.90783 510.03394 453.85038 511.31055 452.7207 C 530.84936 435.52287 547.94545 415.33143 561.66602 392.61133 C 566.50998 384.59013 570.82129 376.47463 574.69922 368.23438 C 575.35924 366.83943 575.96296 365.41292 576.59961 364.00391 C 577.78103 361.36986 578.94412 358.72775 580.03125 356.0625 C 580.49043 354.95052 581.01431 353.8759 581.45898 352.75586 C 587.28656 338.07751 591.46273 323.5239 594.25586 308.22852 C 594.98409 304.51181 595.67304 300.77137 596.26172 296.96484 C 598.26627 284.00311 599.0293 262.57978 598.38086 245.69336 C 598.21831 241.45058 597.92168 237.34812 597.55078 233.29688 C 597.5222 233.03284 597.52001 232.64615 597.49023 232.38867 C 597.4611 232.13667 597.41842 231.89228 597.38867 231.64063 C 596.41051 221.78724 594.61915 212.04143 592.2207 201.83984 C 591.64512 199.31978 591.05401 196.80794 590.41016 194.32422 C 590.09934 193.14071 589.90709 192.07462 589.57617 190.86719 C 589.16743 189.37581 588.68898 187.90639 588.25195 186.42383 C 588.05651 185.75715 587.85873 185.09173 587.6582 184.42773 C 586.86437 181.8176 586.02529 179.22349 585.14453 176.64258 C 584.66889 175.23374 584.18684 173.82814 583.6875 172.43164 C 583.15648 170.96368 582.60392 169.50451 582.04492 168.04688 C 581.1053 165.56764 580.13894 163.10202 579.12305 160.66211 C 569.881 138.46515 557.46719 117.89585 541.86328 98.857422 C 540.99058 97.783321 540.12333 96.706475 539.23242 95.644531 C 538.34954 94.601177 537.44351 93.569159 536.54102 92.535156 C 534.54671 90.231436 532.5157 87.955449 530.43555 85.712891 C 530.30149 85.569289 530.1657 85.426618 530.03125 85.283203 C 518.61015 73.024635 505.95766 61.669897 492.11523 51.464844 C 484.63317 45.948828 476.47231 40.775279 467.92773 35.976563 C 466.09125 34.933217 464.20698 33.972802 462.34375 32.974609 C 460.51117 32.003259 458.70868 31.004537 456.8457 30.072266 C 453.39341 28.329355 449.88364 26.692396 446.34766 25.103516 C 445.84808 24.879702 445.35836 24.640735 444.85742 24.419922 C 441.26789 22.834367 437.62916 21.350782 433.95898 19.925781 C 433.21693 19.63644 432.48187 19.333127 431.73828 19.050781 C 428.70069 17.90344 425.62804 16.83718 422.53906 15.800781 C 420.9601 15.267335 419.38833 14.728068 417.80859 14.228516 C 416.89198 13.940277 415.99893 13.598797 415.07813 13.320313 C 413.3772 12.805899 411.96709 12.497037 410.34961 12.033203 C 408.36296 11.473506 406.38449 10.919572 404.40625 10.417969 C 396.81074 8.4237851 389.54336 6.8142648 382.08203 5.78125 C 373.26123 4.3374213 365.45038 3.8214768 352.91211 3.6503906 C 350.30018 3.5638481 348.1576 3.4103095 345.28711 3.3515625 C 334.23856 3.1254438 327.7636 3.0460601 322.62109 3.2324219 z M 342.1543 30.912109 C 347.51234 30.913725 352.66529 31.061018 357.59766 31.236328 C 365.68713 31.621064 373.20794 32.302406 379.58789 33.271484 C 381.76707 33.64344 383.94611 34.014208 386.10352 34.443359 C 388.39131 34.890998 390.64901 35.419202 392.91211 35.933594 C 395.6831 36.568939 398.46802 37.172593 401.19922 37.902344 C 401.20636 37.904251 401.21357 37.906296 401.2207 37.908203 C 401.38466 37.951928 401.54322 38.008658 401.70703 38.052734 C 408.39319 39.855282 414.92359 42.005122 421.35156 44.361328 C 423.38425 45.110151 425.43027 45.830735 427.43555 46.634766 C 429.59488 47.49557 431.71542 48.428611 433.8418 49.351563 C 436.52145 50.521926 439.18525 51.719824 441.81055 52.988281 C 443.37517 53.739584 444.93375 54.501612 446.47852 55.287109 C 450.20117 57.191461 453.87676 59.174742 457.47852 61.273438 C 457.96258 61.554084 458.45957 61.813523 458.94141 62.097656 C 472.49673 70.129908 485.15807 79.518242 496.73438 90.099609 C 496.86731 90.221225 497.00014 90.342898 497.13281 90.464844 C 508.67907 101.0688 519.13602 112.86231 528.32617 125.66602 C 528.64724 126.11382 528.94743 126.58074 529.26563 127.03125 C 531.85562 130.69522 534.34011 134.44037 536.71875 138.26367 C 537.22671 139.07831 537.72168 139.90414 538.2207 140.72656 C 549.03103 158.60009 557.54609 178.09731 563.25391 198.87891 C 564.35077 202.87247 565.06986 205.83741 565.84961 208.97461 C 566.5512 211.96313 567.20053 214.99879 567.8125 218.06445 C 568.11774 219.68506 568.43062 221.34802 568.6582 222.95703 C 568.9647 224.93271 569.22309 227.76372 569.46094 230.87891 C 569.61871 232.99241 569.80314 235.04971 569.89063 237.49805 C 569.94322 238.53016 569.97138 239.68138 570.01758 240.75977 C 570.13795 245.77973 570.18061 251.41584 570.17383 258.74609 C 570.16108 272.53019 569.99095 280.80401 569.43164 287.88086 C 568.65222 294.96409 567.42615 302.1976 565.7793 309.50781 C 565.36749 311.22203 565.08593 312.60968 564.58984 314.57813 C 564.0056 316.91126 563.33864 319.24727 562.67383 321.58398 C 561.96586 324.09714 561.22335 326.589 560.44336 329.05859 C 559.33054 332.52926 558.18212 335.99831 556.9043 339.44141 C 556.7334 339.908 556.55639 340.37102 556.38281 340.83594 C 551.44534 353.89715 545.34223 366.62945 538.33594 378.45703 C 537.81354 379.32986 537.2975 380.20742 536.76367 381.07227 C 535.13398 383.73911 533.42764 386.31534 531.70703 388.87305 C 530.394 390.8135 529.05495 392.73396 527.68164 394.63086 C 525.88679 397.11431 524.04609 399.57039 522.13867 401.98633 C 520.86826 403.59558 519.57184 405.18666 518.25586 406.76172 C 516.47686 408.8905 514.64149 410.97701 512.7793 413.04492 C 510.78776 415.25494 508.74966 417.42768 506.66406 419.56445 C 504.9278 421.34746 503.17443 423.11482 501.37891 424.84375 C 499.46695 426.6776 497.52353 428.48642 495.53906 430.26172 C 494.69745 431.01861 493.83315 431.7493 492.98047 432.49414 C 485.52226 438.97215 477.60154 445.07044 469.16797 450.7207 C 464.67181 453.73301 460.1681 456.54159 455.58008 459.17969 C 451.20961 461.69267 446.7442 464.03121 442.15625 466.26953 C 441.53454 466.57076 440.90904 466.85938 440.28516 467.1543 C 436.4536 468.9814 432.49072 470.71813 428.41602 472.40234 C 426.69404 473.11191 425.04181 473.7536 423.38086 474.40625 C 419.61996 475.87431 415.77353 477.31289 411.73633 478.70508 C 408.60761 479.76748 405.49783 480.80669 402.53711 481.65625 C 401.81231 481.86845 401.04073 482.14078 400.32422 482.33984 C 396.04156 483.51009 391.93195 484.39747 387.86914 485.15039 C 386.77829 485.35031 385.68118 485.5395 384.58398 485.71289 C 380.91956 486.30175 377.29108 486.757 373.66797 487.03906 C 373.17361 487.07996 372.71257 487.15253 372.21289 487.18945 C 366.51113 487.57263 354.42371 487.82993 342.78125 487.91211 C 326.80735 487.93846 310.87489 487.55464 305.85742 486.74219 C 305.18623 486.62922 304.45527 486.48711 303.75391 486.35156 C 291.489 483.98498 274.65591 479.16321 260.625 474.08789 C 259.96106 473.83654 259.31219 473.56688 258.65234 473.31055 C 256.45846 472.49636 254.55538 471.69761 252.56445 470.89063 C 241.25924 466.14364 230.58051 460.61673 220.46484 454.31641 C 219.29076 453.57182 218.11248 452.83713 216.94922 452.06836 C 216.35557 451.6827 215.77128 451.28385 215.18164 450.89258 C 196.09393 438.0167 178.60983 421.87109 163.73438 403.5957 C 162.5556 402.14305 161.33108 400.69806 160.19727 399.23633 C 159.37617 398.1781 158.56279 397.11453 157.75977 396.04297 C 155.2964 392.75765 152.9135 389.45247 150.66602 386.10352 C 150.11604 385.28483 149.60371 384.44427 149.06445 383.61914 C 146.98388 380.42872 144.97612 377.21195 143.08008 373.94531 C 142.76961 373.41463 142.45051 372.88839 142.14453 372.35547 C 140.33756 369.18005 138.67108 365.93268 137.0293 362.66992 C 136.47149 361.56416 135.86899 360.48739 135.33008 359.36719 C 133.99036 356.58576 132.78454 353.71511 131.55664 350.85938 C 130.71798 348.88934 129.83335 346.96679 129.04297 344.93945 C 128.49556 343.55739 128.01761 342.11625 127.49414 340.71484 C 124.32657 332.07704 121.49335 322.95963 119.01367 312.92578 C 116.5689 303.03316 115.20482 295.8345 114.50391 287 C 114.2677 281.47671 114.21981 274.0303 114.22266 259.625 C 114.22416 251.86477 114.25061 246.31933 114.32813 241.27734 C 114.36948 239.92557 114.392 238.12416 114.44336 236.89258 C 114.4813 235.54847 114.59339 234.56775 114.65039 233.36133 C 115.11359 225.15218 115.96201 218.99537 117.71094 211.61328 C 118.38243 208.87638 119.31211 205.43633 120.27734 201.88477 C 120.78972 200.0311 121.16521 198.52481 121.77539 196.38867 C 122.06052 195.3743 122.38312 194.36959 122.68359 193.35938 C 123.45811 190.76322 124.26165 188.15381 125.17383 185.51367 C 125.27123 185.22785 125.37786 184.94377 125.47656 184.6582 C 128.90661 174.8701 133.23128 164.87507 138.18359 155.19336 C 138.3971 154.78131 138.60765 154.36916 138.82422 153.95703 C 139.92454 151.83488 141.08369 149.75324 142.24023 147.66992 C 143.33008 145.73306 144.41678 143.79629 145.57617 141.85352 C 145.90207 141.30243 146.23511 140.76177 146.56445 140.21484 C 148.13769 137.61993 149.77044 135.01827 151.4707 132.40625 C 152.28756 131.16472 153.10749 129.93448 153.93945 128.72461 C 154.5781 127.77351 155.23286 126.81949 155.88867 125.86523 C 157.46426 123.65361 159.07499 121.54451 160.69141 119.4668 C 168.28957 109.99761 188.45478 89.59958 199.14648 80.492188 C 201.97263 78.184392 204.84096 75.920789 207.79492 73.753906 C 208.75762 73.064954 209.72201 72.383837 210.68555 71.712891 C 213.11981 69.988196 215.60199 68.323347 218.11328 66.695313 C 220.1084 65.405242 222.11031 64.167277 224.11523 62.951172 C 226.51287 61.503949 228.92373 60.076294 231.38086 58.716797 C 232.72133 57.967975 234.07036 57.252624 235.41797 56.535156 C 238.8905 54.70536 242.39603 52.927958 245.9707 51.275391 C 246.36926 51.089788 246.76855 50.905713 247.16797 50.722656 C 251.33639 48.82474 255.56675 47.042785 259.85547 45.392578 C 260.09034 45.302566 260.32531 45.212257 260.56055 45.123047 C 264.49386 43.624373 268.48636 42.266578 272.50586 40.982422 C 273.68692 40.610954 274.86684 40.236015 276.05859 39.882813 C 278.87902 39.031622 281.72902 38.27461 284.58398 37.53125 C 287.1296 36.881754 289.68057 36.2394 292.28125 35.666016 C 293.99025 35.283492 295.70929 34.942984 297.42773 34.599609 C 300.4236 34.003979 303.45636 33.450982 306.5332 32.949219 C 308.14022 32.71812 309.67254 32.469892 311.42773 32.277344 C 314.37578 31.911855 317.9175 31.599685 322.2207 31.386719 C 323.15206 31.330551 324.14247 31.307372 325.0918 31.259766 C 330.4275 31.048454 336.22525 30.910322 342.1543 30.912109 z M 285.96484 76.113281 C 274.54296 76.007018 269.14687 77.166104 261.61133 80.867188 C 251.3595 85.902374 238.54034 99.693025 233.22266 111.40625 C 231.77531 114.5943 231.546 117.25815 231.5293 130.99414 L 231.50977 146.89258 L 234.98242 152.26563 C 240.91438 161.4435 250.16704 169.95461 277.07617 190.98828 C 286.30257 198.20014 292.92936 205.39787 297.41602 213.08008 C 299.38438 216.45038 301.1651 219.20898 301.37305 219.20898 C 301.58101 219.20898 305.011 216.57708 308.99414 213.36133 C 312.97729 210.14556 318.22629 206.61097 320.6582 205.50586 C 330.5255 201.02196 343.84076 200.62661 359.31641 204.35742 C 363.89853 205.46206 367.85807 206.15756 368.11328 205.90234 C 369.73137 204.28428 372.07803 180.14344 372.08203 165.07031 C 372.08559 152.44708 370.41309 141.95359 366.8418 132.16797 C 356.85494 104.80333 338.35201 86.947446 311.70898 78.966797 C 305.42437 77.084304 301.63066 76.576838 291.25391 76.232422 C 289.35248 76.169312 287.59655 76.128462 285.96484 76.113281 z M 470.31055 221.84375 L 455.24219 228.54883 C 428.29711 240.53869 421.03469 242.93472 406.38086 244.66602 C 401.80808 245.20627 397.93415 245.78069 397.77148 245.94336 C 397.6088 246.10603 397.94004 248.90762 398.50781 252.16797 C 399.93941 260.38877 399.14463 274.68737 396.93945 280.35938 C 394.5326 286.55019 390.00072 293.12282 382.64063 301.10352 C 376.49719 307.76487 376.41669 307.91491 377.80469 310.0332 C 379.62083 312.80499 390.00016 321.34052 398.45508 327.01367 C 410.96267 335.40612 427.09012 342.52678 439.73633 345.24023 C 446.46033 346.68301 462.31278 346.92546 470.68359 345.71484 C 478.26211 344.61881 485.62727 342.07755 495.52734 337.14258 C 501.93707 333.94746 504.85994 331.76775 510.9668 325.62695 C 532.99661 303.4747 540.83797 283.54939 535.5918 263.05859 C 531.24215 246.06964 521.1281 232.87629 506.81445 225.52344 L 499.65039 221.84375 L 484.98047 221.84375 L 470.31055 221.84375 z M 334.74414 227.82422 L 327.5332 231.45898 C 315.95676 237.29586 311.84064 243.59636 310.85156 256.98828 C 310.24415 265.21234 311.65219 272.25371 314.94336 277.44336 C 318.05337 282.34729 325.89886 288.39319 331.95898 290.55664 C 338.05999 292.73468 348.85466 292.32423 354.75781 289.68945 C 360.16729 287.27507 368.85288 278.97851 371.33008 273.86133 C 372.80823 270.80787 373.35889 267.75405 373.66406 260.89258 C 374.02927 252.681 373.87299 251.50457 371.83398 247.05078 C 368.84651 240.52524 363.57963 235.00757 356.98047 231.49023 C 352.17415 228.92853 350.55538 228.54527 343.14063 228.20703 L 334.74414 227.82422 z M 281.64453 264.89648 C 276.54523 264.89648 250.92167 276.75856 239.7793 284.27734 C 231.3508 289.96487 219.73811 301.00117 213.9082 308.86523 C 208.67588 315.9233 202.44108 328.88347 200.19141 337.37891 C 198.9307 342.13954 198.57661 346.50756 198.62891 356.70898 C 198.68888 368.41874 198.96265 370.75896 201.08008 377.70703 C 208.81728 403.09593 223.25691 420.37128 241.61328 426.20117 C 243.851 426.91187 250.55422 427.33519 260.06445 427.36719 C 274.2307 427.41479 275.24405 427.30472 279.74609 425.20898 C 285.70505 422.43512 294.34041 415.47541 299.16211 409.5625 C 307.24264 399.65316 310.07451 390.74798 313.17578 365.49414 C 316.46492 338.71046 318.49932 330.50917 324.17383 321.16797 C 325.87944 318.36022 327.27539 315.66704 327.27539 315.18359 C 327.27539 314.70013 325.41194 313.83708 323.13477 313.26367 C 314.90732 311.19198 306.36672 306.50731 300.96289 301.10352 C 293.60998 293.75057 290.84677 288.90045 286.73242 276.125 C 284.00259 267.64865 282.75528 264.89648 281.64453 264.89648 z M 391.60352 553.33008 C 391.42741 553.3268 391.24389 553.35412 391.04492 553.40234 C 378.58432 556.42234 359.55678 558.32789 341.77344 558.33789 C 324.68131 558.34731 310.22825 556.90136 292.93359 553.45117 C 290.76689 553.01892 290.54526 553.34273 288.2793 560.30859 C 284.47128 572.01491 276.19068 581.67542 261.28906 591.79492 C 258.56017 593.64808 247.0859 600.76992 235.79102 607.62109 C 224.49613 614.47227 211.85081 622.40308 207.68945 625.24609 C 198.70783 631.3823 190.79819 639.39121 188.42773 644.75 C 186.68173 648.69716 185.26858 659.64781 184.69531 673.66016 L 184.38086 681.34961 L 341.91211 681.34961 L 499.44336 681.34961 L 498.96484 670.14648 C 498.38031 656.46372 497.27843 648.20637 495.41797 643.55664 C 492.45854 636.1603 479.43806 626.23407 447.49023 607.01758 C 410.81478 584.95744 403.36032 578.26248 396.18164 560.94336 C 393.65967 554.8589 392.83622 553.35304 391.60352 553.33008 z "
     transform="scale(0.75)" />
</svg>
